<svg xmlns="http://www.w3.org/2000/svg" viewBox="0 0 965.7360 178.9920" width="965.7360" height="178.9920">
  <g fill="currentColor">
  <path transform="translate(0.0000 66.0240) scale(0.072000 -0.072000)" d="M84 10V670Q84 680 94 680H163Q173 680 173 670V10Q173 0 163 0H94Q84 0 84 10Z"/>  <path transform="translate(18.5040 66.0240) scale(0.072000 -0.072000)" d="M457 0H393Q383 0 383 10V290Q383 348 355.5 380.0Q328 412 276 412Q227 412 196.5 380.0Q166 348 166 295V10Q166 0 156 0H92Q82 0 82 10V469Q82 479 92 479H156Q166 479 166 469V425H167Q185 454 220.0 472.0Q255 490 301 490Q378 490 422.5 441.0Q467 392 467 310V10Q467 0 457 0Z"/>  <path transform="translate(57.6720 66.0240) scale(0.072000 -0.072000)" d="M258 -5H221Q152 -5 122.0 27.5Q92 60 92 131V405Q92 411 86 411H46Q36 411 36 421V469Q36 479 46 479H86Q92 479 92 485V620Q92 630 102 630H166Q176 630 176 620V485Q176 479 182 479H258Q268 479 268 469V421Q268 411 258 411H182Q176 411 176 405V134Q176 99 190.0 86.0Q204 73 237 73H258Q268 73 268 63V5Q268 -5 258 -5Z"/>  <path transform="translate(80.4240 66.0240) scale(0.072000 -0.072000)" d="M261 -11Q227 -11 187.5 0.0Q148 11 115.5 42.5Q83 74 69 119Q53 169 53 240Q53 318 68 361Q83 406 115.0 437.0Q147 468 185.5 479.0Q224 490 256 490Q324 490 374.0 455.5Q424 421 444 361Q459 315 459 224Q459 214 448 214H145Q139 214 139 208Q139 176 147 150Q161 110 192.5 88.5Q224 67 268 67Q345 67 391 120Q399 128 406 122L447 85Q454 79 448 71Q419 34 370.0 11.5Q321 -11 261 -11ZM145 281H367Q373 281 373 287Q373 320 366 341Q354 376 325.0 396.0Q296 416 256 416Q216 416 187.0 396.0Q158 376 146 341Q139 320 139 287Q139 281 145 281Z"/>  <path transform="translate(117.2880 66.0240) scale(0.072000 -0.072000)" d="M238 -191Q189 -191 142.5 -171.0Q96 -151 72 -120Q66 -113 73 -106L114 -65Q122 -57 129 -65Q182 -113 242 -113Q302 -113 332.5 -81.0Q363 -49 363 16V72H362Q326 6 229 6Q169 6 127.5 36.0Q86 66 68 122Q52 170 52 248Q52 326 68 374Q86 430 127.5 460.0Q169 490 229 490Q326 490 362 424H363V469Q363 479 373 479H437Q447 479 447 469V21Q447 -81 393.0 -136.0Q339 -191 238 -191ZM250 83Q327 83 352 155Q363 188 363 248Q363 307 352 341Q327 412 250 412Q174 412 149 341Q137 304 137 248Q137 191 149 155Q174 83 250 83Z"/>  <path transform="translate(155.3760 66.0240) scale(0.072000 -0.072000)" d="M156 0H92Q82 0 82 10V469Q82 479 92 479H156Q166 479 166 469V420H167Q183 452 216.0 471.0Q249 490 294 490Q320 490 347.5 480.0Q375 470 392 454Q399 447 394 440L357 391Q351 383 343 389Q307 412 269 412Q243 412 218.5 399.5Q194 387 180.0 353.0Q166 319 166 272V10Q166 0 156 0Z"/>  <path transform="translate(184.8960 66.0240) scale(0.072000 -0.072000)" d="M431 0H372Q362 0 362 10V52H361Q344 24 307.5 6.5Q271 -11 219 -11Q167 -11 131.0 7.5Q95 26 76.5 57.5Q58 89 58 133Q58 207 107.0 244.0Q156 281 245 281H354Q360 281 360 287V322Q360 371 335.5 393.5Q311 416 245 416Q177 416 129 382Q125 379 121.0 379.5Q117 380 115 383L88 429Q84 437 90 443Q118 465 160.0 477.5Q202 490 253 490Q355 490 398.0 452.5Q441 415 441 327V10Q441 0 431 0ZM239 61Q280 61 309.5 75.5Q339 90 349.5 112.0Q360 134 360 155V208Q360 214 354 214H258Q197 214 168.0 195.0Q139 176 139 136Q139 100 165.5 80.5Q192 61 239 61Z"/>  <path transform="translate(222.2640 66.0240) scale(0.072000 -0.072000)" d="M258 -5H221Q152 -5 122.0 27.5Q92 60 92 131V405Q92 411 86 411H46Q36 411 36 421V469Q36 479 46 479H86Q92 479 92 485V620Q92 630 102 630H166Q176 630 176 620V485Q176 479 182 479H258Q268 479 268 469V421Q268 411 258 411H182Q176 411 176 405V134Q176 99 190.0 86.0Q204 73 237 73H258Q268 73 268 63V5Q268 -5 258 -5Z"/>  <path transform="translate(245.0160 66.0240) scale(0.072000 -0.072000)" d="M261 -11Q227 -11 187.5 0.0Q148 11 115.5 42.5Q83 74 69 119Q53 169 53 240Q53 318 68 361Q83 406 115.0 437.0Q147 468 185.5 479.0Q224 490 256 490Q324 490 374.0 455.5Q424 421 444 361Q459 315 459 224Q459 214 448 214H145Q139 214 139 208Q139 176 147 150Q161 110 192.5 88.5Q224 67 268 67Q345 67 391 120Q399 128 406 122L447 85Q454 79 448 71Q419 34 370.0 11.5Q321 -11 261 -11ZM145 281H367Q373 281 373 287Q373 320 366 341Q354 376 325.0 396.0Q296 416 256 416Q216 416 187.0 396.0Q158 376 146 341Q139 320 139 287Q139 281 145 281Z"/>  <path transform="translate(281.8800 66.0240) scale(0.072000 -0.072000)" d="M446 0H382Q372 0 372 10V56H371Q330 -11 235 -11Q173 -11 130.5 18.5Q88 48 70 104Q53 154 53 240Q53 325 70 375Q88 431 130.5 460.5Q173 490 235 490Q331 490 371 424H372V670Q372 680 382 680H446Q456 680 456 670V10Q456 0 446 0ZM255 67Q294 67 321.5 86.0Q349 105 361 140Q372 172 372 240Q372 307 361 340Q349 375 321.5 393.5Q294 412 255 412Q175 412 150 340Q139 304 139 240Q139 174 150 140Q162 105 189.0 86.0Q216 67 255 67Z"/>  <path transform="translate(337.8960 66.0240) scale(0.072000 -0.072000)" d="M290 -11Q222 -11 156.0 13.5Q90 38 51 74Q44 81 50 89L94 141Q100 148 108 142Q145 113 195.0 92.5Q245 72 298 72Q367 72 407.5 104.0Q448 136 448 188Q448 234 416.0 261.5Q384 289 306 299L272 304Q173 317 122.5 364.5Q72 412 72 492Q72 582 132.5 636.5Q193 691 294 691Q352 691 407.5 673.5Q463 656 501 628Q509 622 503 614L469 559Q463 552 455 557Q373 608 291 608Q262 608 231.5 598.0Q201 588 181.5 561.0Q162 534 162 498Q162 466 179.0 444.0Q196 422 226.5 408.5Q257 395 305 389L338 384Q538 357 538 194Q538 150 522.0 112.0Q506 74 474.5 46.5Q443 19 396.0 4.0Q349 -11 290 -11Z"/>  <path transform="translate(380.4480 66.0240) scale(0.072000 -0.072000)" d="M112 -180H86Q76 -180 76 -170V-112Q76 -102 86 -102H104Q126 -102 146.0 -90.5Q166 -79 185 -30L201 14L25 469Q22 479 33 479H103Q112 479 115 469L241 123H243L364 469Q367 479 376 479H444Q448 479 450.5 476.0Q453 473 452 469L263 -37Q236 -110 204.5 -145.0Q173 -180 112 -180Z"/>  <path transform="translate(414.7920 66.0240) scale(0.072000 -0.072000)" d="M247 -11Q200 -11 147.0 5.5Q94 22 49 61Q46 64 46.0 68.0Q46 72 49 75L90 119Q93 122 97.0 122.0Q101 122 104 119Q132 95 171.5 79.5Q211 64 252 64Q302 64 329.5 84.0Q357 104 357 137Q357 167 337.0 182.5Q317 198 264 204L213 209Q143 216 106.5 251.0Q70 286 70 344Q70 412 117.0 451.0Q164 490 248 490Q297 490 342.0 475.5Q387 461 418 437Q419 436 421.5 432.5Q424 429 420 423L386 380Q380 373 372 378Q347 394 312.0 405.5Q277 417 243 417Q200 417 176.0 399.0Q152 381 152 351Q152 322 173.5 306.5Q195 291 246 286L296 281Q331 278 358.5 267.0Q386 256 404.5 238.5Q423 221 431.5 196.5Q440 172 440 146Q440 74 389.5 31.5Q339 -11 247 -11Z"/>  <path transform="translate(450.0720 66.0240) scale(0.072000 -0.072000)" d="M258 -5H221Q152 -5 122.0 27.5Q92 60 92 131V405Q92 411 86 411H46Q36 411 36 421V469Q36 479 46 479H86Q92 479 92 485V620Q92 630 102 630H166Q176 630 176 620V485Q176 479 182 479H258Q268 479 268 469V421Q268 411 258 411H182Q176 411 176 405V134Q176 99 190.0 86.0Q204 73 237 73H258Q268 73 268 63V5Q268 -5 258 -5Z"/>  <path transform="translate(472.8240 66.0240) scale(0.072000 -0.072000)" d="M261 -11Q227 -11 187.5 0.0Q148 11 115.5 42.5Q83 74 69 119Q53 169 53 240Q53 318 68 361Q83 406 115.0 437.0Q147 468 185.5 479.0Q224 490 256 490Q324 490 374.0 455.5Q424 421 444 361Q459 315 459 224Q459 214 448 214H145Q139 214 139 208Q139 176 147 150Q161 110 192.5 88.5Q224 67 268 67Q345 67 391 120Q399 128 406 122L447 85Q454 79 448 71Q419 34 370.0 11.5Q321 -11 261 -11ZM145 281H367Q373 281 373 287Q373 320 366 341Q354 376 325.0 396.0Q296 416 256 416Q216 416 187.0 396.0Q158 376 146 341Q139 320 139 287Q139 281 145 281Z"/>  <path transform="translate(509.6880 66.0240) scale(0.072000 -0.072000)" d="M758 0H694Q684 0 684 10V290Q684 348 656.5 380.0Q629 412 577 412Q555 412 529.0 401.5Q503 391 485.0 362.0Q467 333 467 295V10Q467 0 457 0H393Q383 0 383 10V290Q383 348 355.5 380.0Q328 412 276 412Q227 412 196.5 380.0Q166 348 166 295V10Q166 0 156 0H92Q82 0 82 10V469Q82 479 92 479H156Q166 479 166 469V425H167Q185 454 220.0 472.0Q255 490 301 490Q349 490 385.0 470.5Q421 451 441 415H442Q496 490 597 490Q679 490 723.5 441.5Q768 393 768 310V10Q768 0 758 0Z"/>  <path transform="translate(570.5280 66.0240) scale(0.072000 -0.072000)" d="M247 -11Q200 -11 147.0 5.5Q94 22 49 61Q46 64 46.0 68.0Q46 72 49 75L90 119Q93 122 97.0 122.0Q101 122 104 119Q132 95 171.5 79.5Q211 64 252 64Q302 64 329.5 84.0Q357 104 357 137Q357 167 337.0 182.5Q317 198 264 204L213 209Q143 216 106.5 251.0Q70 286 70 344Q70 412 117.0 451.0Q164 490 248 490Q297 490 342.0 475.5Q387 461 418 437Q419 436 421.5 432.5Q424 429 420 423L386 380Q380 373 372 378Q347 394 312.0 405.5Q277 417 243 417Q200 417 176.0 399.0Q152 381 152 351Q152 322 173.5 306.5Q195 291 246 286L296 281Q331 278 358.5 267.0Q386 256 404.5 238.5Q423 221 431.5 196.5Q440 172 440 146Q440 74 389.5 31.5Q339 -11 247 -11Z"/>  <path transform="translate(623.0880 66.0240) scale(0.072000 -0.072000)" d="M84 10V670Q84 680 94 680H163Q173 680 173 670V89Q173 83 179 83H503Q513 83 513 73V10Q513 0 503 0H94Q84 0 84 10Z"/>  <path transform="translate(661.8240 66.0240) scale(0.072000 -0.072000)" d="M431 0H372Q362 0 362 10V52H361Q344 24 307.5 6.5Q271 -11 219 -11Q167 -11 131.0 7.5Q95 26 76.5 57.5Q58 89 58 133Q58 207 107.0 244.0Q156 281 245 281H354Q360 281 360 287V322Q360 371 335.5 393.5Q311 416 245 416Q177 416 129 382Q125 379 121.0 379.5Q117 380 115 383L88 429Q84 437 90 443Q118 465 160.0 477.5Q202 490 253 490Q355 490 398.0 452.5Q441 415 441 327V10Q441 0 431 0ZM239 61Q280 61 309.5 75.5Q339 90 349.5 112.0Q360 134 360 155V208Q360 214 354 214H258Q197 214 168.0 195.0Q139 176 139 136Q139 100 165.5 80.5Q192 61 239 61Z"/>  <path transform="translate(699.1920 66.0240) scale(0.072000 -0.072000)" d="M156 0H92Q82 0 82 10V670Q82 680 92 680H156Q166 680 166 670V424H167Q207 490 303 490Q365 490 407.5 460.5Q450 431 468 375Q485 325 485 240Q485 154 468 104Q450 48 407.5 18.5Q365 -11 303 -11Q208 -11 167 56H166V10Q166 0 156 0ZM283 67Q322 67 349.0 86.0Q376 105 388 140Q399 174 399 240Q399 304 388 340Q363 412 283 412Q244 412 216.5 393.5Q189 375 177 340Q166 307 166 240Q166 172 177 140Q189 105 216.5 86.0Q244 67 283 67Z"/>  <path transform="translate(737.9280 66.0240) scale(0.072000 -0.072000)" d="M258 -11Q224 -11 186.0 0.0Q148 11 115.5 42.0Q83 73 69 118Q53 166 53 240Q53 313 69 361Q88 422 138.0 456.0Q188 490 258 490Q328 490 378.0 456.0Q428 422 447 361Q463 313 463 240Q463 166 447 118Q437 88 415.0 58.0Q393 28 351.5 8.5Q310 -11 258 -11ZM258 67Q297 67 325.5 87.0Q354 107 366 142Q377 178 377 240Q377 301 366 337Q354 372 325.5 392.0Q297 412 258 412Q219 412 190.5 392.0Q162 372 150 337Q139 301 139 240Q139 178 150 142Q162 107 190.5 87.0Q219 67 258 67Z"/>  <path transform="translate(775.0800 66.0240) scale(0.072000 -0.072000)" d="M156 0H92Q82 0 82 10V469Q82 479 92 479H156Q166 479 166 469V420H167Q183 452 216.0 471.0Q249 490 294 490Q320 490 347.5 480.0Q375 470 392 454Q399 447 394 440L357 391Q351 383 343 389Q307 412 269 412Q243 412 218.5 399.5Q194 387 180.0 353.0Q166 319 166 272V10Q166 0 156 0Z"/>  <path transform="translate(804.6000 66.0240) scale(0.072000 -0.072000)" d="M431 0H372Q362 0 362 10V52H361Q344 24 307.5 6.5Q271 -11 219 -11Q167 -11 131.0 7.5Q95 26 76.5 57.5Q58 89 58 133Q58 207 107.0 244.0Q156 281 245 281H354Q360 281 360 287V322Q360 371 335.5 393.5Q311 416 245 416Q177 416 129 382Q125 379 121.0 379.5Q117 380 115 383L88 429Q84 437 90 443Q118 465 160.0 477.5Q202 490 253 490Q355 490 398.0 452.5Q441 415 441 327V10Q441 0 431 0ZM239 61Q280 61 309.5 75.5Q339 90 349.5 112.0Q360 134 360 155V208Q360 214 354 214H258Q197 214 168.0 195.0Q139 176 139 136Q139 100 165.5 80.5Q192 61 239 61Z"/>  <path transform="translate(841.9680 66.0240) scale(0.072000 -0.072000)" d="M258 -5H221Q152 -5 122.0 27.5Q92 60 92 131V405Q92 411 86 411H46Q36 411 36 421V469Q36 479 46 479H86Q92 479 92 485V620Q92 630 102 630H166Q176 630 176 620V485Q176 479 182 479H258Q268 479 268 469V421Q268 411 258 411H182Q176 411 176 405V134Q176 99 190.0 86.0Q204 73 237 73H258Q268 73 268 63V5Q268 -5 258 -5Z"/>  <path transform="translate(864.7200 66.0240) scale(0.072000 -0.072000)" d="M258 -11Q224 -11 186.0 0.0Q148 11 115.5 42.0Q83 73 69 118Q53 166 53 240Q53 313 69 361Q88 422 138.0 456.0Q188 490 258 490Q328 490 378.0 456.0Q428 422 447 361Q463 313 463 240Q463 166 447 118Q437 88 415.0 58.0Q393 28 351.5 8.5Q310 -11 258 -11ZM258 67Q297 67 325.5 87.0Q354 107 366 142Q377 178 377 240Q377 301 366 337Q354 372 325.5 392.0Q297 412 258 412Q219 412 190.5 392.0Q162 372 150 337Q139 301 139 240Q139 178 150 142Q162 107 190.5 87.0Q219 67 258 67Z"/>  <path transform="translate(901.8720 66.0240) scale(0.072000 -0.072000)" d="M156 0H92Q82 0 82 10V469Q82 479 92 479H156Q166 479 166 469V420H167Q183 452 216.0 471.0Q249 490 294 490Q320 490 347.5 480.0Q375 470 392 454Q399 447 394 440L357 391Q351 383 343 389Q307 412 269 412Q243 412 218.5 399.5Q194 387 180.0 353.0Q166 319 166 272V10Q166 0 156 0Z"/>  <path transform="translate(931.3920 66.0240) scale(0.072000 -0.072000)" d="M112 -180H86Q76 -180 76 -170V-112Q76 -102 86 -102H104Q126 -102 146.0 -90.5Q166 -79 185 -30L201 14L25 469Q22 479 33 479H103Q112 479 115 469L241 123H243L364 469Q367 479 376 479H444Q448 479 450.5 476.0Q453 473 452 469L263 -37Q236 -110 204.5 -145.0Q173 -180 112 -180Z"/>  <path transform="translate(0.0000 163.6560) scale(0.072000 -0.072000)" d="M84 10V670Q84 680 94 680H163Q173 680 173 670V10Q173 0 163 0H94Q84 0 84 10Z"/>  <path transform="translate(18.5040 163.6560) scale(0.072000 -0.072000)" d="M457 0H393Q383 0 383 10V290Q383 348 355.5 380.0Q328 412 276 412Q227 412 196.5 380.0Q166 348 166 295V10Q166 0 156 0H92Q82 0 82 10V469Q82 479 92 479H156Q166 479 166 469V425H167Q185 454 220.0 472.0Q255 490 301 490Q378 490 422.5 441.0Q467 392 467 310V10Q467 0 457 0Z"/>  <path transform="translate(57.6720 163.6560) scale(0.072000 -0.072000)" d="M247 -11Q200 -11 147.0 5.5Q94 22 49 61Q46 64 46.0 68.0Q46 72 49 75L90 119Q93 122 97.0 122.0Q101 122 104 119Q132 95 171.5 79.5Q211 64 252 64Q302 64 329.5 84.0Q357 104 357 137Q357 167 337.0 182.5Q317 198 264 204L213 209Q143 216 106.5 251.0Q70 286 70 344Q70 412 117.0 451.0Q164 490 248 490Q297 490 342.0 475.5Q387 461 418 437Q419 436 421.5 432.5Q424 429 420 423L386 380Q380 373 372 378Q347 394 312.0 405.5Q277 417 243 417Q200 417 176.0 399.0Q152 381 152 351Q152 322 173.5 306.5Q195 291 246 286L296 281Q331 278 358.5 267.0Q386 256 404.5 238.5Q423 221 431.5 196.5Q440 172 440 146Q440 74 389.5 31.5Q339 -11 247 -11Z"/>  <path transform="translate(92.9520 163.6560) scale(0.072000 -0.072000)" d="M258 -5H221Q152 -5 122.0 27.5Q92 60 92 131V405Q92 411 86 411H46Q36 411 36 421V469Q36 479 46 479H86Q92 479 92 485V620Q92 630 102 630H166Q176 630 176 620V485Q176 479 182 479H258Q268 479 268 469V421Q268 411 258 411H182Q176 411 176 405V134Q176 99 190.0 86.0Q204 73 237 73H258Q268 73 268 63V5Q268 -5 258 -5Z"/>  <path transform="translate(115.7040 163.6560) scale(0.072000 -0.072000)" d="M158 587H90Q80 587 80 597V670Q80 680 90 680H158Q168 680 168 670V597Q168 587 158 587ZM156 0H92Q82 0 82 10V469Q82 479 92 479H156Q166 479 166 469V10Q166 0 156 0Z"/>  <path transform="translate(133.5600 163.6560) scale(0.072000 -0.072000)" d="M258 -5H221Q152 -5 122.0 27.5Q92 60 92 131V405Q92 411 86 411H46Q36 411 36 421V469Q36 479 46 479H86Q92 479 92 485V620Q92 630 102 630H166Q176 630 176 620V485Q176 479 182 479H258Q268 479 268 469V421Q268 411 258 411H182Q176 411 176 405V134Q176 99 190.0 86.0Q204 73 237 73H258Q268 73 268 63V5Q268 -5 258 -5Z"/>  <path transform="translate(156.3120 163.6560) scale(0.072000 -0.072000)" d="M447 0H383Q373 0 373 10V55H372Q353 24 319.0 6.5Q285 -11 241 -11Q163 -11 119.0 38.5Q75 88 75 170V469Q75 479 85 479H149Q159 479 159 469V190Q159 132 186.0 99.5Q213 67 265 67Q300 67 326.5 85.5Q353 104 363.0 132.0Q373 160 373 185V469Q373 479 383 479H447Q457 479 457 469V10Q457 0 447 0Z"/>  <path transform="translate(195.1200 163.6560) scale(0.072000 -0.072000)" d="M258 -5H221Q152 -5 122.0 27.5Q92 60 92 131V405Q92 411 86 411H46Q36 411 36 421V469Q36 479 46 479H86Q92 479 92 485V620Q92 630 102 630H166Q176 630 176 620V485Q176 479 182 479H258Q268 479 268 469V421Q268 411 258 411H182Q176 411 176 405V134Q176 99 190.0 86.0Q204 73 237 73H258Q268 73 268 63V5Q268 -5 258 -5Z"/>  <path transform="translate(235.1520 163.6560) scale(0.072000 -0.072000)" d="M172 0H108Q98 0 98 10V405Q98 411 92 411H51Q41 411 41 421V469Q41 479 51 479H92Q98 479 98 485V526Q98 609 133.0 644.5Q168 680 244 680H281Q291 680 291 670V612Q291 602 281 602H255Q210 602 196.0 588.0Q182 574 182 530V485Q182 479 188 479H281Q291 479 291 469V421Q291 411 281 411H188Q182 411 182 405V10Q182 0 172 0Z"/>  <path transform="translate(258.0480 163.6560) scale(0.072000 -0.072000)" d="M447 0H383Q373 0 373 10V55H372Q353 24 319.0 6.5Q285 -11 241 -11Q163 -11 119.0 38.5Q75 88 75 170V469Q75 479 85 479H149Q159 479 159 469V190Q159 132 186.0 99.5Q213 67 265 67Q300 67 326.5 85.5Q353 104 363.0 132.0Q373 160 373 185V469Q373 479 383 479H447Q457 479 457 469V10Q457 0 447 0ZM397 587H338Q328 587 328 597V670Q328 680 338 680H397Q407 680 407 670V597Q407 587 397 587ZM200 587H141Q131 587 131 597V670Q131 680 141 680H200Q210 680 210 670V597Q210 587 200 587Z"/>  <path transform="translate(296.8560 163.6560) scale(0.072000 -0.072000)" d="M156 0H92Q82 0 82 10V469Q82 479 92 479H156Q166 479 166 469V420H167Q183 452 216.0 471.0Q249 490 294 490Q320 490 347.5 480.0Q375 470 392 454Q399 447 394 440L357 391Q351 383 343 389Q307 412 269 412Q243 412 218.5 399.5Q194 387 180.0 353.0Q166 319 166 272V10Q166 0 156 0Z"/>  <path transform="translate(343.6560 163.6560) scale(0.072000 -0.072000)" d="M84 10V670Q84 680 94 680H163Q173 680 173 670V10Q173 0 163 0H94Q84 0 84 10Z"/>  <path transform="translate(362.1600 163.6560) scale(0.072000 -0.072000)" d="M457 0H393Q383 0 383 10V290Q383 348 355.5 380.0Q328 412 276 412Q227 412 196.5 380.0Q166 348 166 295V10Q166 0 156 0H92Q82 0 82 10V469Q82 479 92 479H156Q166 479 166 469V425H167Q185 454 220.0 472.0Q255 490 301 490Q378 490 422.5 441.0Q467 392 467 310V10Q467 0 457 0Z"/>  <path transform="translate(401.3280 163.6560) scale(0.072000 -0.072000)" d="M258 -5H221Q152 -5 122.0 27.5Q92 60 92 131V405Q92 411 86 411H46Q36 411 36 421V469Q36 479 46 479H86Q92 479 92 485V620Q92 630 102 630H166Q176 630 176 620V485Q176 479 182 479H258Q268 479 268 469V421Q268 411 258 411H182Q176 411 176 405V134Q176 99 190.0 86.0Q204 73 237 73H258Q268 73 268 63V5Q268 -5 258 -5Z"/>  <path transform="translate(424.0800 163.6560) scale(0.072000 -0.072000)" d="M261 -11Q227 -11 187.5 0.0Q148 11 115.5 42.5Q83 74 69 119Q53 169 53 240Q53 318 68 361Q83 406 115.0 437.0Q147 468 185.5 479.0Q224 490 256 490Q324 490 374.0 455.5Q424 421 444 361Q459 315 459 224Q459 214 448 214H145Q139 214 139 208Q139 176 147 150Q161 110 192.5 88.5Q224 67 268 67Q345 67 391 120Q399 128 406 122L447 85Q454 79 448 71Q419 34 370.0 11.5Q321 -11 261 -11ZM145 281H367Q373 281 373 287Q373 320 366 341Q354 376 325.0 396.0Q296 416 256 416Q216 416 187.0 396.0Q158 376 146 341Q139 320 139 287Q139 281 145 281Z"/>  <path transform="translate(460.9440 163.6560) scale(0.072000 -0.072000)" d="M238 -191Q189 -191 142.5 -171.0Q96 -151 72 -120Q66 -113 73 -106L114 -65Q122 -57 129 -65Q182 -113 242 -113Q302 -113 332.5 -81.0Q363 -49 363 16V72H362Q326 6 229 6Q169 6 127.5 36.0Q86 66 68 122Q52 170 52 248Q52 326 68 374Q86 430 127.5 460.0Q169 490 229 490Q326 490 362 424H363V469Q363 479 373 479H437Q447 479 447 469V21Q447 -81 393.0 -136.0Q339 -191 238 -191ZM250 83Q327 83 352 155Q363 188 363 248Q363 307 352 341Q327 412 250 412Q174 412 149 341Q137 304 137 248Q137 191 149 155Q174 83 250 83Z"/>  <path transform="translate(499.0320 163.6560) scale(0.072000 -0.072000)" d="M156 0H92Q82 0 82 10V469Q82 479 92 479H156Q166 479 166 469V420H167Q183 452 216.0 471.0Q249 490 294 490Q320 490 347.5 480.0Q375 470 392 454Q399 447 394 440L357 391Q351 383 343 389Q307 412 269 412Q243 412 218.5 399.5Q194 387 180.0 353.0Q166 319 166 272V10Q166 0 156 0Z"/>  <path transform="translate(528.5520 163.6560) scale(0.072000 -0.072000)" d="M158 587H90Q80 587 80 597V670Q80 680 90 680H158Q168 680 168 670V597Q168 587 158 587ZM156 0H92Q82 0 82 10V469Q82 479 92 479H156Q166 479 166 469V10Q166 0 156 0Z"/>  <path transform="translate(546.4080 163.6560) scale(0.072000 -0.072000)" d="M261 -11Q227 -11 187.5 0.0Q148 11 115.5 42.5Q83 74 69 119Q53 169 53 240Q53 318 68 361Q83 406 115.0 437.0Q147 468 185.5 479.0Q224 490 256 490Q324 490 374.0 455.5Q424 421 444 361Q459 315 459 224Q459 214 448 214H145Q139 214 139 208Q139 176 147 150Q161 110 192.5 88.5Q224 67 268 67Q345 67 391 120Q399 128 406 122L447 85Q454 79 448 71Q419 34 370.0 11.5Q321 -11 261 -11ZM145 281H367Q373 281 373 287Q373 320 366 341Q354 376 325.0 396.0Q296 416 256 416Q216 416 187.0 396.0Q158 376 146 341Q139 320 139 287Q139 281 145 281Z"/>  <path transform="translate(583.2720 163.6560) scale(0.072000 -0.072000)" d="M156 0H92Q82 0 82 10V469Q82 479 92 479H156Q166 479 166 469V420H167Q183 452 216.0 471.0Q249 490 294 490Q320 490 347.5 480.0Q375 470 392 454Q399 447 394 440L357 391Q351 383 343 389Q307 412 269 412Q243 412 218.5 399.5Q194 387 180.0 353.0Q166 319 166 272V10Q166 0 156 0Z"/>  <path transform="translate(612.7920 163.6560) scale(0.072000 -0.072000)" d="M258 -5H221Q152 -5 122.0 27.5Q92 60 92 131V405Q92 411 86 411H46Q36 411 36 421V469Q36 479 46 479H86Q92 479 92 485V620Q92 630 102 630H166Q176 630 176 620V485Q176 479 182 479H258Q268 479 268 469V421Q268 411 258 411H182Q176 411 176 405V134Q176 99 190.0 86.0Q204 73 237 73H258Q268 73 268 63V5Q268 -5 258 -5Z"/>  <path transform="translate(635.5440 163.6560) scale(0.072000 -0.072000)" d="M261 -11Q227 -11 187.5 0.0Q148 11 115.5 42.5Q83 74 69 119Q53 169 53 240Q53 318 68 361Q83 406 115.0 437.0Q147 468 185.5 479.0Q224 490 256 490Q324 490 374.0 455.5Q424 421 444 361Q459 315 459 224Q459 214 448 214H145Q139 214 139 208Q139 176 147 150Q161 110 192.5 88.5Q224 67 268 67Q345 67 391 120Q399 128 406 122L447 85Q454 79 448 71Q419 34 370.0 11.5Q321 -11 261 -11ZM145 281H367Q373 281 373 287Q373 320 366 341Q354 376 325.0 396.0Q296 416 256 416Q216 416 187.0 396.0Q158 376 146 341Q139 320 139 287Q139 281 145 281Z"/>  <path transform="translate(689.6880 163.6560) scale(0.072000 -0.072000)" d="M290 -11Q222 -11 156.0 13.5Q90 38 51 74Q44 81 50 89L94 141Q100 148 108 142Q145 113 195.0 92.5Q245 72 298 72Q367 72 407.5 104.0Q448 136 448 188Q448 234 416.0 261.5Q384 289 306 299L272 304Q173 317 122.5 364.5Q72 412 72 492Q72 582 132.5 636.5Q193 691 294 691Q352 691 407.5 673.5Q463 656 501 628Q509 622 503 614L469 559Q463 552 455 557Q373 608 291 608Q262 608 231.5 598.0Q201 588 181.5 561.0Q162 534 162 498Q162 466 179.0 444.0Q196 422 226.5 408.5Q257 395 305 389L338 384Q538 357 538 194Q538 150 522.0 112.0Q506 74 474.5 46.5Q443 19 396.0 4.0Q349 -11 290 -11Z"/>  <path transform="translate(732.2400 163.6560) scale(0.072000 -0.072000)" d="M112 -180H86Q76 -180 76 -170V-112Q76 -102 86 -102H104Q126 -102 146.0 -90.5Q166 -79 185 -30L201 14L25 469Q22 479 33 479H103Q112 479 115 469L241 123H243L364 469Q367 479 376 479H444Q448 479 450.5 476.0Q453 473 452 469L263 -37Q236 -110 204.5 -145.0Q173 -180 112 -180Z"/>  <path transform="translate(766.5840 163.6560) scale(0.072000 -0.072000)" d="M247 -11Q200 -11 147.0 5.5Q94 22 49 61Q46 64 46.0 68.0Q46 72 49 75L90 119Q93 122 97.0 122.0Q101 122 104 119Q132 95 171.5 79.5Q211 64 252 64Q302 64 329.5 84.0Q357 104 357 137Q357 167 337.0 182.5Q317 198 264 204L213 209Q143 216 106.5 251.0Q70 286 70 344Q70 412 117.0 451.0Q164 490 248 490Q297 490 342.0 475.5Q387 461 418 437Q419 436 421.5 432.5Q424 429 420 423L386 380Q380 373 372 378Q347 394 312.0 405.5Q277 417 243 417Q200 417 176.0 399.0Q152 381 152 351Q152 322 173.5 306.5Q195 291 246 286L296 281Q331 278 358.5 267.0Q386 256 404.5 238.5Q423 221 431.5 196.5Q440 172 440 146Q440 74 389.5 31.5Q339 -11 247 -11Z"/>  <path transform="translate(801.8640 163.6560) scale(0.072000 -0.072000)" d="M258 -5H221Q152 -5 122.0 27.5Q92 60 92 131V405Q92 411 86 411H46Q36 411 36 421V469Q36 479 46 479H86Q92 479 92 485V620Q92 630 102 630H166Q176 630 176 620V485Q176 479 182 479H258Q268 479 268 469V421Q268 411 258 411H182Q176 411 176 405V134Q176 99 190.0 86.0Q204 73 237 73H258Q268 73 268 63V5Q268 -5 258 -5Z"/>  <path transform="translate(824.6160 163.6560) scale(0.072000 -0.072000)" d="M261 -11Q227 -11 187.5 0.0Q148 11 115.5 42.5Q83 74 69 119Q53 169 53 240Q53 318 68 361Q83 406 115.0 437.0Q147 468 185.5 479.0Q224 490 256 490Q324 490 374.0 455.5Q424 421 444 361Q459 315 459 224Q459 214 448 214H145Q139 214 139 208Q139 176 147 150Q161 110 192.5 88.5Q224 67 268 67Q345 67 391 120Q399 128 406 122L447 85Q454 79 448 71Q419 34 370.0 11.5Q321 -11 261 -11ZM145 281H367Q373 281 373 287Q373 320 366 341Q354 376 325.0 396.0Q296 416 256 416Q216 416 187.0 396.0Q158 376 146 341Q139 320 139 287Q139 281 145 281Z"/>  <path transform="translate(861.4800 163.6560) scale(0.072000 -0.072000)" d="M758 0H694Q684 0 684 10V290Q684 348 656.5 380.0Q629 412 577 412Q555 412 529.0 401.5Q503 391 485.0 362.0Q467 333 467 295V10Q467 0 457 0H393Q383 0 383 10V290Q383 348 355.5 380.0Q328 412 276 412Q227 412 196.5 380.0Q166 348 166 295V10Q166 0 156 0H92Q82 0 82 10V469Q82 479 92 479H156Q166 479 166 469V425H167Q185 454 220.0 472.0Q255 490 301 490Q349 490 385.0 470.5Q421 451 441 415H442Q496 490 597 490Q679 490 723.5 441.5Q768 393 768 310V10Q768 0 758 0Z"/>  <path transform="translate(922.3200 163.6560) scale(0.072000 -0.072000)" d="M261 -11Q227 -11 187.5 0.0Q148 11 115.5 42.5Q83 74 69 119Q53 169 53 240Q53 318 68 361Q83 406 115.0 437.0Q147 468 185.5 479.0Q224 490 256 490Q324 490 374.0 455.5Q424 421 444 361Q459 315 459 224Q459 214 448 214H145Q139 214 139 208Q139 176 147 150Q161 110 192.5 88.5Q224 67 268 67Q345 67 391 120Q399 128 406 122L447 85Q454 79 448 71Q419 34 370.0 11.5Q321 -11 261 -11ZM145 281H367Q373 281 373 287Q373 320 366 341Q354 376 325.0 396.0Q296 416 256 416Q216 416 187.0 396.0Q158 376 146 341Q139 320 139 287Q139 281 145 281Z"/>
  </g>
</svg>